<svg width="281" height="67" viewBox="0 0 281 67" fill="none" xmlns="http://www.w3.org/2000/svg">
<path d="M88.157 16.7039C85.1051 18.3262 80.7807 23.3739 79 25.6949C81.533 24.5133 87.0599 21.9931 88.9031 21.3651C91.2072 20.5801 98.0048 18.4234 97.0746 16.8288C96.1445 15.2342 91.9719 14.6759 88.157 16.7039Z" fill="#fff"/>
<path fill-rule="evenodd" clip-rule="evenodd" d="M89.4481 0.19992C84.2733 1.58815 81.0199 5.72879 81.0001 10.9513C80.9777 16.9112 85.3379 21.6406 92.4786 23.4017C94.2304 23.8339 96.592 24.0104 100.48 23.9995C105.885 23.9841 108.422 23.7284 121.809 21.8498C134.079 20.1277 138.721 20.2314 138.724 22.2268C138.725 23.0882 140.22 23.4735 140.881 22.7833C141.524 22.1123 139.452 20.6204 137.143 20.0928C135.505 19.7184 133.698 19.7932 125.925 20.5558C119.206 21.2156 114.387 21.4634 108.386 21.4589C98.8139 21.451 96.98 21.1251 91.6545 18.4845C86.0928 15.7265 83.0388 12.0259 83.0208 8.02235C82.9892 0.929143 92.4602 -1.35315 100.189 3.88508C103.398 6.06036 106.149 9.86268 106.172 12.154C106.196 14.5921 104.152 16.1917 101.032 16.1767C96.9149 16.1576 91.8262 11.9734 91.8438 8.62315C91.8505 7.39301 92.1185 6.91387 93.1254 6.33072C93.7859 5.94808 93.7936 5.90378 93.2008 5.89326C92.8375 5.88725 92.1145 6.3172 91.5934 6.84891C90.7653 7.69454 90.6689 8.04901 90.8223 9.67981C91.4276 16.111 102.591 19.415 106.416 14.2947C109.419 10.2742 106.633 4.70405 99.9958 1.45785C97.6291 0.300555 96.8984 0.127824 93.9282 0.0230598C92.0707 -0.0426528 90.0548 0.0369532 89.4481 0.19992Z" fill="#fff"/>
<path fill-rule="evenodd" clip-rule="evenodd" d="M121.534 14.0583C119.982 14.4632 119.006 15.6709 119 17.1941C118.993 18.9324 120.301 20.3119 122.444 20.8255C122.969 20.9516 123.678 21.003 124.844 20.9999C126.465 20.9954 127.227 20.9208 131.243 20.3729C134.924 19.8706 136.316 19.9008 136.317 20.4828C136.317 20.7341 136.766 20.8464 136.964 20.6451C137.157 20.4494 136.535 20.0143 135.843 19.8604C135.351 19.7512 134.809 19.773 132.478 19.9954C130.462 20.1879 129.016 20.2602 127.216 20.2588C124.344 20.2565 123.794 20.1615 122.196 19.3913C120.528 18.5869 119.612 17.5076 119.606 16.3399C119.597 14.271 122.438 13.6053 124.757 15.1331C125.72 15.7676 126.545 16.8766 126.552 17.5449C126.559 18.256 125.946 18.7226 125.01 18.7182C123.774 18.7126 122.248 17.4922 122.253 16.5151C122.255 16.1563 122.336 16.0165 122.638 15.8465C122.836 15.7349 122.838 15.7219 122.66 15.7189C122.551 15.7171 122.334 15.8425 122.178 15.9976C121.93 16.2442 121.901 16.3476 121.947 16.8233C122.128 18.699 125.477 19.6627 126.625 18.1693C127.526 16.9966 126.69 15.372 124.699 14.4252C123.989 14.0877 123.77 14.0373 122.878 14.0067C122.321 13.9876 121.716 14.0108 121.534 14.0583Z" fill="#fff"/>
<path fill-rule="evenodd" clip-rule="evenodd" d="M203.411 0.19992C208.672 1.58815 211.98 5.72879 212 10.9513C212.023 16.9112 207.59 21.6406 200.33 23.4017C198.549 23.8339 196.148 24.0104 192.195 23.9995C186.701 23.9841 184.121 23.7284 170.511 21.8498C158.036 20.1277 153.317 20.2314 153.314 22.2268C153.313 23.0882 151.793 23.4735 151.121 22.7833C150.467 22.1123 152.574 20.6204 154.921 20.0928C156.587 19.7184 158.423 19.7932 166.326 20.5558C173.157 21.2156 178.056 21.4634 184.157 21.4589C193.889 21.451 195.754 21.1251 201.168 18.4845C206.822 15.7265 209.927 12.0259 209.946 8.02235C209.978 0.929143 200.349 -1.35315 192.491 3.88508C189.228 6.06036 186.431 9.86268 186.409 12.154C186.384 14.5921 188.462 16.1917 191.634 16.1767C195.82 16.1576 200.993 11.9734 200.975 8.62315C200.969 7.39301 200.696 6.91387 199.673 6.33072C199.001 5.94808 198.993 5.90378 199.596 5.89326C199.965 5.88725 200.7 6.3172 201.23 6.84891C202.072 7.69454 202.17 8.04901 202.014 9.67981C201.399 16.111 190.049 19.415 186.161 14.2947C183.107 10.2742 185.939 4.70405 192.688 1.45785C195.094 0.300555 195.837 0.127824 198.856 0.0230598C200.745 -0.0426528 202.794 0.0369532 203.411 0.19992Z" fill="#fff"/>
<path d="M265.881 64.2029C265.882 65.298 265.703 65.7626 265.123 66.1687C264.081 66.899 263.601 66.8385 264.301 66.0651C264.748 65.5708 264.802 65.2327 264.541 64.5475C264.052 63.2613 263.05 62.8757 259.76 62.7082C256.118 62.5225 255.471 62.3936 254.796 61.7188C254.017 60.9396 254.116 59.3187 254.98 58.7136C255.69 58.2168 255.68 58.1963 254.38 57.3751C252.48 56.1758 250.499 53.8677 250.499 52.8537C250.499 52.3843 250.653 52 250.841 52C251.029 52 251.183 52.2069 251.183 52.4598C251.183 52.7128 251.463 53.173 251.804 53.4824C252.374 53.9973 252.583 54.0004 254.283 53.5187C257.606 52.5775 259.104 52.5279 260.115 53.3258C261.126 54.1241 261.501 55.1156 261.055 55.8083C260.805 56.1949 260.698 56.1867 260.418 55.7607C260.233 55.4787 260.028 55.0941 259.962 54.906C259.887 54.6889 259.229 54.7389 258.162 55.0428C257.238 55.306 255.789 55.6137 254.943 55.7266L253.405 55.9317L254.943 56.6585C255.789 57.0582 257.02 57.4992 257.678 57.6384C263.019 58.7683 265.878 61.0565 265.881 64.2029Z" fill="#fff"/>
<path fill-rule="evenodd" clip-rule="evenodd" d="M1.76731 32.2262C1.56043 34.0894 2.92193 36.1245 5.16341 37.3029C9.05819 39.3502 15.1829 38.1052 22.0456 33.8708C24.0801 32.6157 26.7374 31.2692 27.9509 30.8789L30.1573 30.1693L28.7757 32.0074C28.0158 33.0183 26.7921 35.0772 26.0566 36.582C25.3207 38.0872 24.5983 39.4416 24.4508 39.5919C23.8723 40.1817 22.1001 39.8584 21.6927 39.0889C21.2152 38.1868 20.7126 38.4653 20.7222 39.6269C20.731 40.7054 22.1698 42.0026 23.6232 42.2424C26.7885 42.7648 29.3703 40.6454 32.1397 35.2522C34.3137 31.0183 35.2083 30.3447 37.5779 31.1556C39.6377 31.8607 40.0264 30.849 38.1475 29.6731C36.1951 28.452 32.6052 28.2455 28.4516 29.1168C24.6487 29.9143 24.526 29.9037 24.8486 28.8042C25.3563 27.0752 24.5791 25.4632 22.8238 24.6015C20.5564 23.4891 19.0234 24.2473 13.7132 29.1081C11.1797 31.4269 8.79769 33.4128 8.41931 33.5206C5.5297 34.3442 3.10305 33.1604 2.9696 30.8617C2.91339 29.8952 2.83766 29.8087 2.41907 30.2354C2.15214 30.5075 1.85877 31.4032 1.76731 32.2262Z" fill="#fff"/>
<path fill-rule="evenodd" clip-rule="evenodd" d="M278.341 28.7284C278.583 26.5436 276.987 24.1573 274.359 22.7756C269.792 20.375 262.61 21.8348 254.563 26.8C252.178 28.2716 249.062 29.8505 247.639 30.3081L245.052 31.1401L246.672 28.9849C247.563 27.7995 248.998 25.3854 249.86 23.6209C250.723 21.8559 251.57 20.2679 251.743 20.0916C252.421 19.4001 254.499 19.779 254.977 20.6814C255.537 21.7392 256.126 21.4126 256.115 20.0506C256.105 18.786 254.418 17.2649 252.713 16.9837C249.002 16.3711 245.975 18.8563 242.727 25.1802C240.178 30.1446 239.129 30.9345 236.351 29.9837C233.935 29.1569 233.48 30.3431 235.683 31.722C237.972 33.1538 242.182 33.3959 247.052 32.3743C251.511 31.4392 251.655 31.4516 251.277 32.7408C250.681 34.7682 251.593 36.6584 253.651 37.6688C256.309 38.9732 258.107 38.0841 264.334 32.3845C267.304 29.6655 270.097 27.337 270.541 27.2106C273.929 26.2449 276.775 27.6329 276.931 30.3283C276.997 31.4616 277.086 31.563 277.577 31.0627C277.89 30.7436 278.234 29.6934 278.341 28.7284Z" fill="#fff"/>
<path fill-rule="evenodd" clip-rule="evenodd" d="M24.1103 54.7778C23.4082 54.8005 21.6005 55.3813 20.0932 56.0684C16.3018 57.7973 14.4982 58.0856 12.975 57.2061C11.3757 56.2828 10.9496 55.5343 11.2265 54.1357C11.4712 52.9002 12.0369 52.2604 13.2392 51.8588C14.9064 51.3023 16.2778 53.2994 15.1758 54.6794C14.7024 55.2725 14.6924 55.496 15.1288 55.748C15.4322 55.9231 16.0254 55.8264 16.4471 55.533C17.0892 55.0863 17.1897 54.8178 17.0646 53.8802C16.7235 51.3243 13.5524 50.0609 11.7993 51.7825C7.9927 55.5207 12.3852 60.0953 20.3559 60.694C24.3276 60.9921 30.6303 60.4677 31.016 59.8065C31.4251 59.1049 31.2707 59.0744 28.7639 59.3616L26.5517 59.615L27.0636 58.3243C27.9052 56.2019 26.6511 54.6959 24.1103 54.7778ZM23.268 59.4421C23.0309 59.8529 18.9958 60.1554 18.8862 59.7703C18.853 59.6546 19.62 59.2935 20.5899 58.9677C22.3158 58.3879 23.7318 58.6388 23.268 59.4421Z" fill="#fff"/>
<path d="M31.6016 60C30.2734 60 28.8359 60.0234 27.2891 60.0703C25.7422 60.1172 24.0547 60.1797 22.2266 60.2578V56.0859H26.1172C26.2109 55.6641 26.2578 54.9453 26.2578 53.9297V33.5859C26.2578 33.1172 26.2422 32.7109 26.2109 32.3672C26.1953 32.0234 26.1719 31.7422 26.1406 31.5234H21.3359V27.6094C23.9922 27.4844 26.6172 27.3906 29.2109 27.3281C31.8203 27.25 34.4609 27.2109 37.1328 27.2109C38.4453 27.2109 39.7422 27.2578 41.0234 27.3516C42.3203 27.4297 43.5469 27.5938 44.7031 27.8438C45.8594 28.0938 46.9297 28.4453 47.9141 28.8984C48.8984 29.3359 49.7422 29.9062 50.4453 30.6094C51.1641 31.3125 51.7266 32.1719 52.1328 33.1875C52.5391 34.2031 52.7422 35.3984 52.7422 36.7734C52.7422 38.4766 52.1016 40.0078 50.8203 41.3672C49.5547 42.7266 47.6484 43.8516 45.1016 44.7422C46.3984 45.3203 47.4609 45.9453 48.2891 46.6172C49.1172 47.2891 49.8047 48.0547 50.3516 48.9141C50.8984 49.7578 51.3516 50.7188 51.7109 51.7969C52.0859 52.875 52.4688 54.1016 52.8594 55.4766H56.7969V60.0234C55.8281 60.1016 54.8516 60.1953 53.8672 60.3047C52.8984 60.4141 51.8984 60.4688 50.8672 60.4688C49.5234 60.4688 48.375 60.2734 47.4219 59.8828C46.4688 59.4766 45.6562 58.9531 44.9844 58.3125C44.3281 57.6562 43.7812 56.9141 43.3438 56.0859C42.9062 55.2578 42.5312 54.4141 42.2188 53.5547C41.9219 52.6797 41.6562 51.8281 41.4219 51C41.1875 50.1562 40.9297 49.4141 40.6484 48.7734C40.3828 48.1172 40.0703 47.5938 39.7109 47.2031C39.3672 46.7969 38.9219 46.5938 38.375 46.5938H36.3828V53.9297C36.3828 54.3672 36.3906 54.7656 36.4062 55.125C36.4375 55.4688 36.4688 55.7891 36.5 56.0859H39.7344V60.2578C38.2188 60.1797 36.7891 60.1172 35.4453 60.0703C34.1016 60.0234 32.8203 60 31.6016 60ZM37.5781 42.6797C40.875 42.6797 42.5234 40.7734 42.5234 36.9609C42.5234 35.9766 42.4219 35.1406 42.2188 34.4531C42.0156 33.7656 41.6953 33.2109 41.2578 32.7891C40.8203 32.3516 40.2578 32.0312 39.5703 31.8281C38.8828 31.625 38.0469 31.5234 37.0625 31.5234H36.3828V42.6797H37.5781ZM92.0938 31.5234C92.0625 31.7891 92.0312 32.1016 92 32.4609C91.9844 32.8203 91.9766 33.2266 91.9766 33.6797V47.9531C91.9766 50.1875 91.5703 52.1016 90.7578 53.6953C89.9609 55.2734 88.875 56.5703 87.5 57.5859C86.125 58.6016 84.5234 59.3438 82.6953 59.8125C80.8828 60.2812 78.9688 60.5156 76.9531 60.5156C72.0625 60.5156 68.3984 59.3672 65.9609 57.0703C63.5234 54.7578 62.3047 51.2188 62.3047 46.4531V33.6797C62.3047 33.1953 62.2891 32.7734 62.2578 32.4141C62.2422 32.0547 62.2188 31.7578 62.1875 31.5234H57.8047V27.4922C61.3828 27.3047 64.6094 27.2109 67.4844 27.2109C68.7188 27.2109 69.7891 27.2188 70.6953 27.2344C71.6016 27.25 72.3906 27.2734 73.0625 27.3047C73.75 27.3203 74.3438 27.3438 74.8438 27.375C75.3438 27.4062 75.8125 27.4453 76.25 27.4922V31.5234H72.5469C72.4844 31.9141 72.4375 32.2891 72.4062 32.6484C72.3906 32.9922 72.3828 33.3359 72.3828 33.6797V48.0469C72.3828 49.2656 72.4922 50.375 72.7109 51.375C72.9453 52.3594 73.2812 53.2031 73.7188 53.9062C74.1562 54.6094 74.7031 55.1484 75.3594 55.5234C76.0156 55.8984 76.7656 56.0859 77.6094 56.0859C78.6875 56.0859 79.5703 55.8359 80.2578 55.3359C80.9453 54.8203 81.4844 54.1328 81.875 53.2734C82.2812 52.3984 82.5547 51.3828 82.6953 50.2266C82.8516 49.0547 82.9297 47.8047 82.9297 46.4766V33.6797C82.9297 33.1953 82.9141 32.7734 82.8828 32.4141C82.8672 32.0547 82.8438 31.7578 82.8125 31.5234H79.3672V27.4922C82.0391 27.3047 84.8906 27.2109 87.9219 27.2109C89.0625 27.2109 90.0625 27.2188 90.9219 27.2344C91.7969 27.25 92.5703 27.2734 93.2422 27.3047C93.9141 27.3203 94.5078 27.3438 95.0234 27.375C95.5547 27.4062 96.0469 27.4453 96.5 27.4922V31.5234H92.0938ZM112.227 30.9375C111.758 30.9375 111.344 31.0391 110.984 31.2422C110.641 31.4453 110.344 31.7266 110.094 32.0859C109.859 32.4453 109.68 32.875 109.555 33.375C109.445 33.8594 109.391 34.3828 109.391 34.9453C109.391 35.6797 109.492 36.3203 109.695 36.8672C109.914 37.3984 110.242 37.875 110.68 38.2969C111.117 38.7188 111.656 39.1094 112.297 39.4688C112.953 39.8125 113.719 40.1641 114.594 40.5234C115.406 40.8516 116.258 41.2031 117.148 41.5781C118.039 41.9531 118.914 42.3672 119.773 42.8203C120.648 43.2734 121.469 43.7656 122.234 44.2969C123.016 44.8281 123.703 45.4141 124.297 46.0547C124.891 46.6953 125.359 47.3984 125.703 48.1641C126.047 48.9297 126.219 49.7656 126.219 50.6719C126.219 52.125 125.898 53.4609 125.258 54.6797C124.633 55.8828 123.727 56.9219 122.539 57.7969C121.352 58.6562 119.914 59.3281 118.227 59.8125C116.555 60.2812 114.672 60.5156 112.578 60.5156C107.469 60.5156 103.211 59.3281 99.8047 56.9531C99.3984 56.6719 99.1094 56.4219 98.9375 56.2031C98.7812 55.9844 98.7031 55.7266 98.7031 55.4297C98.7031 55.2891 98.7188 55.1328 98.75 54.9609C98.7812 54.7891 98.8281 54.5938 98.8906 54.375L100.953 49.0781L108.055 51.8906C108.773 53.5469 109.516 54.7188 110.281 55.4062C111.047 56.0938 111.883 56.4375 112.789 56.4375C113.32 56.4375 113.789 56.3203 114.195 56.0859C114.602 55.8359 114.938 55.5078 115.203 55.1016C115.469 54.6797 115.672 54.2031 115.812 53.6719C115.953 53.1406 116.023 52.5781 116.023 51.9844C116.023 51.0312 115.859 50.2266 115.531 49.5703C115.219 48.8984 114.766 48.3203 114.172 47.8359C113.578 47.3359 112.867 46.8906 112.039 46.5C111.211 46.0938 110.289 45.6719 109.273 45.2344C107.602 44.5156 106.141 43.8047 104.891 43.1016C103.656 42.3984 102.625 41.6719 101.797 40.9219C100.984 40.1719 100.367 39.3828 99.9453 38.5547C99.5391 37.7109 99.3359 36.7969 99.3359 35.8125C99.3359 34.4531 99.6719 33.2266 100.344 32.1328C101.016 31.0391 101.984 30.1094 103.25 29.3438C104.516 28.5625 106.047 27.9609 107.844 27.5391C109.656 27.1172 111.695 26.9062 113.961 26.9062C115.211 26.9062 116.414 26.9688 117.57 27.0938C118.727 27.2188 119.781 27.4062 120.734 27.6562C121.688 27.9062 122.508 28.2188 123.195 28.5938C123.898 28.9688 124.422 29.4141 124.766 29.9297L123.312 36.3281L116.211 34.6406C115.555 33.5156 114.906 32.6172 114.266 31.9453C113.625 31.2734 112.945 30.9375 112.227 30.9375ZM145.836 60C144.414 60 142.891 60.0234 141.266 60.0703C139.641 60.1172 137.883 60.1797 135.992 60.2578V56.0859H140.352C140.445 55.6641 140.492 54.9453 140.492 53.9297V31.8047H134.516C134.234 33.8672 134.07 35.3672 134.023 36.3047H129.289C129.289 35.9453 129.273 35.375 129.242 34.5938C129.227 33.8125 129.203 32.9844 129.172 32.1094C129.156 31.2344 129.133 30.4062 129.102 29.625C129.086 28.8438 129.078 28.2734 129.078 27.9141C129.547 27.7422 130.344 27.625 131.469 27.5625C132.609 27.5 133.984 27.4688 135.594 27.4688H155.516C157.125 27.4688 158.492 27.5 159.617 27.5625C160.758 27.625 161.562 27.7422 162.031 27.9141C162.031 28.1641 162.023 28.5078 162.008 28.9453C162.008 29.3828 162 29.875 161.984 30.4219C161.969 30.9531 161.945 31.5156 161.914 32.1094C161.898 32.7031 161.883 33.2734 161.867 33.8203C161.852 34.3516 161.836 34.8359 161.82 35.2734C161.82 35.7109 161.82 36.0547 161.82 36.3047H157.086C157.086 36.3047 157.078 36.2344 157.062 36.0938C157.047 35.9531 157.023 35.7812 156.992 35.5781C156.977 35.3594 156.953 35.1172 156.922 34.8516C156.906 34.5703 156.883 34.2891 156.852 34.0078L156.617 31.7578H150.617V53.9297C150.617 54.3672 150.625 54.7656 150.641 55.125C150.672 55.4688 150.703 55.7891 150.734 56.0859H155.141V60.2578C153.391 60.1797 151.742 60.1172 150.195 60.0703C148.664 60.0234 147.211 60 145.836 60ZM173.68 60C172.258 60 170.734 60.0234 169.109 60.0703C167.484 60.1172 165.727 60.1797 163.836 60.2578V56.0859H168.195C168.289 55.6641 168.336 54.9453 168.336 53.9297V33.6797C168.336 33.1953 168.32 32.7734 168.289 32.4141C168.273 32.0547 168.25 31.7578 168.219 31.5234H163.836V27.7266C165.539 27.5547 167.141 27.4297 168.641 27.3516C170.141 27.2578 171.578 27.2109 172.953 27.2109C175.016 27.2109 176.859 27.2422 178.484 27.3047C180.125 27.3672 181.602 27.4609 182.914 27.5859V31.5234H178.508C178.477 31.7891 178.445 32.1016 178.414 32.4609C178.398 32.8203 178.391 33.2266 178.391 33.6797V53.9297C178.391 54.3672 178.398 54.7656 178.414 55.125C178.445 55.4688 178.477 55.7891 178.508 56.0859H182.914V60.2578C181.164 60.1797 179.516 60.1172 177.969 60.0703C176.438 60.0234 175.008 60 173.68 60ZM205.297 56.2969C206.547 56.2969 207.711 56.2031 208.789 56.0156C209.867 55.8281 210.891 55.5703 211.859 55.2422C212.828 54.9141 213.766 54.5391 214.672 54.1172C215.578 53.6953 216.492 53.25 217.414 52.7812L218 57.375C214.078 59.6719 209.641 60.8203 204.688 60.8203C201.938 60.8203 199.461 60.4609 197.258 59.7422C195.055 59.0078 193.188 57.9453 191.656 56.5547C190.125 55.1484 188.945 53.4375 188.117 51.4219C187.305 49.4062 186.898 47.1094 186.898 44.5312C186.898 41.6719 187.312 39.1484 188.141 36.9609C188.969 34.7578 190.164 32.9141 191.727 31.4297C193.305 29.9453 195.227 28.8203 197.492 28.0547C199.758 27.2891 202.328 26.9062 205.203 26.9062C206.281 26.9062 207.359 26.9688 208.438 27.0938C209.531 27.2188 210.602 27.4141 211.648 27.6797C212.711 27.9297 213.734 28.25 214.719 28.6406C215.703 29.0312 216.633 29.4922 217.508 30.0234L216.969 36.5156H209.258L208.625 34.8984C208.469 34.5078 208.289 34.0859 208.086 33.6328C207.898 33.1641 207.664 32.7344 207.383 32.3438C207.102 31.9531 206.773 31.6328 206.398 31.3828C206.023 31.1172 205.594 30.9844 205.109 30.9844C202.688 30.9844 200.812 32.0391 199.484 34.1484C198.172 36.2578 197.516 39.3984 197.516 43.5703C197.516 47.6641 198.156 50.8125 199.438 53.0156C200.734 55.2031 202.688 56.2969 205.297 56.2969ZM250.812 60C250.281 60 249.625 60.0078 248.844 60.0234C248.078 60.0547 247.172 60.0859 246.125 60.1172L242.352 60.2578V57.3516C242.648 57.3047 242.93 57.2734 243.195 57.2578C243.461 57.2422 243.688 57.2109 243.875 57.1641C244.078 57.1172 244.234 57.0469 244.344 56.9531C244.453 56.8438 244.508 56.6797 244.508 56.4609C244.508 56.3828 244.5 56.3047 244.484 56.2266C244.469 56.1484 244.445 56.0547 244.414 55.9453L242.773 50.8594H234.898L233.961 54C233.836 54.375 233.75 54.7266 233.703 55.0547C233.656 55.3828 233.633 55.6797 233.633 55.9453C233.633 56.1797 233.695 56.3672 233.82 56.5078C233.945 56.6484 234.109 56.7656 234.312 56.8594C234.516 56.9531 234.75 57.0312 235.016 57.0938C235.297 57.1406 235.594 57.1875 235.906 57.2344L235.32 60.2578C234.461 60.1797 233.438 60.1172 232.25 60.0703C231.062 60.0234 229.688 60 228.125 60C226.234 60 224.625 60.0234 223.297 60.0703C221.969 60.1172 220.906 60.1797 220.109 60.2578L220.977 57.1406L221.586 57.0469C222.102 56.9688 222.523 56.8672 222.852 56.7422C223.195 56.6016 223.477 56.4219 223.695 56.2031C223.93 55.9844 224.125 55.7109 224.281 55.3828C224.438 55.0391 224.609 54.625 224.797 54.1406C225.828 51.3906 226.805 48.8125 227.727 46.4062C228.664 43.9844 229.562 41.6875 230.422 39.5156C231.281 37.3438 232.102 35.2656 232.883 33.2812C233.68 31.2969 234.453 29.3672 235.203 27.4922H239.492C240.211 27.4922 240.875 27.5156 241.484 27.5625C242.109 27.6094 242.664 27.7031 243.148 27.8438C243.648 27.9844 244.062 28.1875 244.391 28.4531C244.734 28.7188 244.992 29.0703 245.164 29.5078C246.367 32.7422 247.43 35.6016 248.352 38.0859C249.273 40.5703 250.078 42.75 250.766 44.625C251.453 46.4844 252.039 48.0703 252.523 49.3828C253.008 50.6953 253.414 51.7891 253.742 52.6641C254.07 53.5391 254.328 54.2344 254.516 54.75C254.703 55.25 254.844 55.6328 254.938 55.8984C255.031 56.1484 255.086 56.3125 255.102 56.3906C255.133 56.4688 255.148 56.5156 255.148 56.5312L258.43 57L259.039 60.2578C256.508 60.1797 254.562 60.1172 253.203 60.0703C251.859 60.0234 251.062 60 250.812 60ZM238.672 36.4219L235.602 47.2734H241.789C241.602 46.6484 241.383 45.8984 241.133 45.0234C240.898 44.1484 240.648 43.2188 240.383 42.2344C240.117 41.25 239.844 40.2578 239.562 39.2578C239.281 38.2578 239.016 37.3125 238.766 36.4219H238.672Z" fill="#fff"/>
</svg>
